<?xml version="1.0" standalone="no"?><!DOCTYPE svg PUBLIC "-//W3C//DTD SVG 1.1//EN" "http://www.w3.org/Graphics/SVG/1.1/DTD/svg11.dtd"><svg class="icon" width="128px" height="128.00px" viewBox="0 0 1024 1024" version="1.1" xmlns="http://www.w3.org/2000/svg"><path d="M867.84 168.533333h-94.933333V114.986667a36.906667 36.906667 0 0 0-36.693334-36.906667H669.866667v-20.053333A36.693333 36.693333 0 0 0 632.96 21.333333H399.786667A36.693333 36.693333 0 0 0 362.666667 58.026667v20.053333h-74.88a36.906667 36.906667 0 0 0-36.693334 36.906667V168.533333H156.373333A36.693333 36.693333 0 0 0 119.466667 205.226667v760.533333A36.693333 36.693333 0 0 0 156.373333 1002.666667h711.466667a36.693333 36.693333 0 0 0 36.693333-36.906667V205.226667a36.693333 36.693333 0 0 0-36.693333-36.693334z m-543.146667-16.853333h75.093334a36.693333 36.693333 0 0 0 36.906666-36.693333v-20.053334H597.333333v20.053334a36.693333 36.693333 0 0 0 36.693334 36.693333h66.346666v74.026667H324.693333zM832 929.066667H193.066667v-686.933334h58.026666v21.333334A36.693333 36.693333 0 0 0 287.786667 298.666667h448a36.693333 36.693333 0 0 0 36.693333-36.693334v-21.333333H832z" fill="#ffffff" /><path d="M664.96 727.893333a218.88 218.88 0 0 0-23.68-281.813333 219.52 219.52 0 1 0-28.373333 333.866667l81.706666 81.706666a36.906667 36.906667 0 0 0 51.84 0A36.48 36.48 0 0 0 746.666667 810.666667zM384 704a145.92 145.92 0 0 1 0-206.08A145.706667 145.706667 0 1 1 384 704z" fill="#ffffff" /></svg>