<?xml version="1.0" standalone="no"?><!DOCTYPE svg PUBLIC "-//W3C//DTD SVG 1.1//EN" "http://www.w3.org/Graphics/SVG/1.1/DTD/svg11.dtd"><svg class="icon" width="128px" height="128.00px" viewBox="0 0 1024 1024" version="1.1" xmlns="http://www.w3.org/2000/svg"><path d="M147.456 271.428c0-69.29 56.752-126.703 127.204-126.703h68.494c21.527 0 39.14 17.818 39.14 39.595 0 21.777-17.613 39.595-39.14 39.595H274.66c-25.441 0-48.925 21.777-48.925 47.513v71.27c0 21.778-15.656 39.595-41.096 39.595-21.527 0-37.183-17.817-37.183-39.594v-71.27z m195.698 583.27H274.66c-70.452 0-127.204-57.412-127.204-126.702v-71.27c0-21.778 17.613-39.595 39.14-39.595 21.526 0 39.14 17.817 39.14 39.594v71.27c0 25.737 21.526 47.514 46.967 47.514h70.45c21.528 0 39.14 17.818 39.14 39.595 0 21.777-17.612 39.595-39.14 39.595zM227.669 537.942c-21.589 0-39.253-17.817-39.253-39.594s17.664-39.595 39.253-39.595h549.547c21.59 0 39.253 17.818 39.253 39.595 0 21.777-17.664 39.594-39.253 39.594H227.669z m629.71 190.055c1.974 69.29-55.243 126.703-126.272 126.703h-69.055c-21.703 0-39.46-17.818-39.46-39.595 0-21.777 17.757-39.595 39.46-39.595h69.055c25.65 0 47.353-21.777 47.353-47.513v-71.27c0-21.778 17.757-39.595 39.46-39.595s39.46 17.817 39.46 39.594v71.27z m0.05-385.297c0 21.777-17.612 39.594-39.14 39.594-21.526 0-39.139-17.817-39.139-39.594v-71.27c0-25.737-19.57-47.514-45.01-47.514h-72.408c-21.527 0-39.14-17.818-39.14-39.595 0-21.777 17.613-39.595 39.14-39.595h70.45c70.452 0 125.247 57.413 125.247 126.703v71.27z" fill="#ffffff" /></svg>