<?xml version="1.0" standalone="no"?><!DOCTYPE svg PUBLIC "-//W3C//DTD SVG 1.1//EN" "http://www.w3.org/Graphics/SVG/1.1/DTD/svg11.dtd"><svg class="icon" width="128px" height="128.00px" viewBox="0 0 1024 1024" version="1.1" xmlns="http://www.w3.org/2000/svg"><path d="M842.042855 274.493701C748.004085 143.117558 614.446253 86.8613 455.399911 108.290355 235.379868 137.933489 92.108814 326.089823 103.287411 532.926612c11.95631 221.219357 188.44286 386.176316 407.03232 387.217019 66.463738 0.316202 127.82527-13.739932 184.358845-42.813085 11.008728-5.66093 22.3838-11.522428 31.587416-19.577894 15.70161-13.743002 20.824281-31.323403 8.315386-49.882084-11.773138-17.46886-28.091802-24.103978-48.381917-14.21577-11.171434 5.446036-21.757536 12.155854-33.110095 17.152658-123.359562 54.295604-241.170758 43.1211-346.669534-40.184211C200.51685 686.999686 161.1564 573.166081 189.455933 442.087721c28.825512-133.518946 114.818025-219.895199 247.716848-250.838955 133.186372-31.012318 247.955278 10.014074 332.524372 116.886127 86.059028 108.756983 93.66117 229.888807 35.394115 355.300099-4.572132 9.842159-11.271718 19.003819-14.107299 29.27372-5.013177 18.155499-0.275269 34.763758 17.101493 44.054355 16.634866 8.895601 33.943067 7.30436 46.596248-7.628748 8.90788-10.513448 16.34527-22.774703 22.188348-35.307134C945.097976 547.508725 935.775656 405.440056 842.042855 274.493701z" fill="#ffffff" /><path d="M549.766139 375.501186c-0.13917-35.777855 0.483001-71.594595-1.058099-107.315144-0.938372-21.718651-14.881942-33.583886-36.572964-34.692127-19.888979-1.01819-34.596959 11.588943-38.367843 33.042557-1.598404 9.096169-1.036609 18.611893-1.047866 27.937283-0.079818 65.345264-0.324388 130.693598 0.029676 196.037838 0.272199 50.278103 10.365068 60.797691 59.304687 61.579497 38.885636 0.623193 77.793784 0.37146 116.685559-0.030699 10.763135-0.11154 22.018479-0.50449 32.147164-3.660366 18.304901-5.702885 27.874861-19.235087 26.588565-38.922475-1.147126-17.554818-10.871605-29.619598-27.64871-33.295314-13.473873-2.953262-27.702945-3.047406-41.617863-3.278673-27.618011-0.458441-55.247278-0.135076-88.418772-0.135076C549.789675 436.877045 549.883819 406.189116 549.766139 375.501186z" fill="#ffffff" /></svg>