<svg id="图层_1" data-name="图层 1" xmlns="http://www.w3.org/2000/svg" width="1432.24951" height="83.5889" viewBox="0 0 1432.24951 83.5889">
  <defs>
    <style>
      .cls-1 {
        fill: #231815;
      }
    </style>
  </defs>
  <title>ELEVATOR AR 文字</title>
  <g>
    <path class="cls-1" d="M438.999,1063.3643V995.6279h34.58839v67.7364h63.8452v15.8525h-81.1391a14.75314,14.75314,0,0,1-6.5581-1.5127,21.04945,21.04945,0,0,1-5.4761-3.8203,19.4967,19.4967,0,0,1-3.8194-5.1143A11.84609,11.84609,0,0,1,438.999,1063.3643Z" transform="translate(-312.75049 -995.6279)"/>
    <path class="cls-1" d="M677.80318,995.6279h38.7686l33.7241,67.3037,1.729.1426q2.3049-.14055,3.3149-2.8808l30.8409-64.5655h24.7895l-34.8774,73.2139a20.20834,20.20834,0,0,1-4.1792,5.332,18.57745,18.57745,0,0,1-5.0445,3.17,21.2652,21.2652,0,0,1-5.9804,1.5136,64.90621,64.90621,0,0,1-7.1338.3594h-17.7266a46.9812,46.9812,0,0,1-14.124-1.7305,13.49176,13.49176,0,0,1-8.0708-7.205Z" transform="translate(-312.75049 -995.6279)"/>
    <path class="cls-1" d="M932.02928,1079.2168h-38.7681l-7.08-13.7393h-36.7808l5.5068-15.8545h23.3472l-18.7178-37.7099-1.729-.1445q-2.30715.1464-3.3154,2.8837l-30.8403,64.5645h-24.7891l34.8769-73.2129a20.22066,20.22066,0,0,1,4.1792-5.333,18.57478,18.57478,0,0,1,5.0445-3.1699,21.44416,21.44416,0,0,1,5.9804-1.5132,65.40722,65.40722,0,0,1,7.1343-.3599h17.7271a47.09894,47.09894,0,0,1,14.123,1.7281,13.5146,13.5146,0,0,1,8.0713,7.2075Z" transform="translate(-312.75049 -995.6279)"/>
    <path class="cls-1" d="M1520.1729,1079.2168h-38.7657l-7.0801-13.7393h-36.7802l5.5049-15.8545h23.3466l-18.7187-37.7099-1.7276-.1445q-2.30565.1464-3.3154,2.8837l-30.8418,64.5645h-24.7871l34.877-73.2129a20.16655,20.16655,0,0,1,4.1797-5.333,18.58182,18.58182,0,0,1,5.0429-3.1699,21.45539,21.45539,0,0,1,5.9815-1.5132,65.38831,65.38831,0,0,1,7.1347-.3599h17.7256a47.11789,47.11789,0,0,1,14.125,1.7281,13.50758,13.50758,0,0,1,8.0694,7.2075Z" transform="translate(-312.75049 -995.6279)"/>
    <path class="cls-1" d="M926.84028,995.6279H1037.5264v15.8535H999.47657v67.7354H964.88768v-67.7354h-38.0474Z" transform="translate(-312.75049 -995.6279)"/>
    <path class="cls-1" d="M1175.877,1063.3643a11.84588,11.84588,0,0,1-1.4415,5.4052,19.51613,19.51613,0,0,1-3.8193,5.1143,20.681,20.681,0,0,1-5.5498,3.8203,14.89473,14.89473,0,0,1-6.4834,1.5127h-86.4717a14.90411,14.90411,0,0,1-6.4863-1.5127,20.67407,20.67407,0,0,1-5.5479-3.8203,19.52054,19.52054,0,0,1-3.8193-5.1143,11.845,11.845,0,0,1-1.4404-5.4052v-51.8829a11.84248,11.84248,0,0,1,1.4404-5.4052,19.54157,19.54157,0,0,1,3.8193-5.1153,20.71822,20.71822,0,0,1,5.5479-3.8198,14.9118,14.9118,0,0,1,6.4863-1.5132h86.4717a14.90242,14.90242,0,0,1,6.4834,1.5132,20.72522,20.72522,0,0,1,5.5498,3.8198,19.53715,19.53715,0,0,1,3.8193,5.1153,11.84334,11.84334,0,0,1,1.4415,5.4052Zm-86.4707,0h51.8828v-51.8829h-51.8828Z" transform="translate(-312.75049 -995.6279)"/>
    <path class="cls-1" d="M1312.7871,1034.9004a19.474,19.474,0,0,1-3.8193,5.1162,20.68368,20.68368,0,0,1-5.5479,3.8193,14.898,14.898,0,0,1-6.4834,1.5127h-15.5654l37.7568,33.8682h-40.4951l-41.3613-36.0303v-13.6904h42.3711v-18.0147h-51.8828v67.7354h-34.5909V995.6279h103.7676a14.90566,14.90566,0,0,1,6.4834,1.5132,20.7309,20.7309,0,0,1,5.5479,3.8198,19.51728,19.51728,0,0,1,3.8193,5.1153,11.84632,11.84632,0,0,1,1.4424,5.4052v18.0147A11.83622,11.83622,0,0,1,1312.7871,1034.9004Z" transform="translate(-312.75049 -995.6279)"/>
    <path class="cls-1" d="M1653.6279,1034.9004a19.56,19.56,0,0,1-3.8193,5.1162,20.7613,20.7613,0,0,1-5.5479,3.8193,14.91966,14.91966,0,0,1-6.4863,1.5127H1622.207l37.7618,33.8682h-40.4981l-41.3633-36.0303v-13.6904h42.3721v-18.0147h-51.8828v67.7354h-34.5879V995.6279h103.7656a14.92738,14.92738,0,0,1,6.4863,1.5132,20.80888,20.80888,0,0,1,5.5479,3.8198,19.60368,19.60368,0,0,1,3.8193,5.1153,11.8866,11.8866,0,0,1,1.4385,5.4052v18.0147A11.87644,11.87644,0,0,1,1653.6279,1034.9004Z" transform="translate(-312.75049 -995.6279)"/>
    <path class="cls-1" d="M1718.1934,1007.1572v22.3389H1745v15.8525h-26.8066v22.3399h-19.0245v-22.3399h-26.8066v-15.8525h26.8066v-22.3389Z" transform="translate(-312.75049 -995.6279)"/>
    <g>
      <polygon class="cls-1" points="0 33.819 0 49.721 34.589 49.721 43.867 49.721 102.037 49.721 102.037 33.868 34.589 33.868 34.589 33.819 0 33.819"/>
      <path class="cls-1" d="M347.33939,1063.3086h-34.5889v.0557a11.84068,11.84068,0,0,0,1.4414,5.4052,19.45457,19.45457,0,0,0,3.8193,5.1143,20.66207,20.66207,0,0,0,5.5489,3.8203,14.89455,14.89455,0,0,0,6.4848,1.5127h91.8042v-15.8525h-74.5097Z" transform="translate(-312.75049 -995.6279)"/>
      <path class="cls-1" d="M330.04489,995.6279a14.90223,14.90223,0,0,0-6.4848,1.5132,20.70616,20.70616,0,0,0-5.5489,3.8198,19.47547,19.47547,0,0,0-3.8193,5.1153,11.83815,11.83815,0,0,0-1.4414,5.4052h109.0986V995.6279Z" transform="translate(-312.75049 -995.6279)"/>
    </g>
    <g>
      <polygon class="cls-1" points="242.119 33.819 242.119 49.721 276.708 49.721 285.986 49.721 344.156 49.721 344.156 33.868 276.708 33.868 276.708 33.819 242.119 33.819"/>
      <path class="cls-1" d="M589.45849,1063.3086h-34.5894v.0557a11.84154,11.84154,0,0,0,1.44191,5.4052,19.44378,19.44378,0,0,0,3.81989,5.1143,20.65887,20.65887,0,0,0,5.5483,3.8203,14.89462,14.89462,0,0,0,6.4849,1.5127h91.80469v-15.8525H589.45849Z" transform="translate(-312.75049 -995.6279)"/>
      <path class="cls-1" d="M572.16409,995.6279a14.9023,14.9023,0,0,0-6.4849,1.5132,20.703,20.703,0,0,0-5.5483,3.8198,19.46466,19.46466,0,0,0-3.81989,5.1153,11.839,11.839,0,0,0-1.44191,5.4052H663.96878V995.6279Z" transform="translate(-312.75049 -995.6279)"/>
    </g>
  </g>
</svg>
