<?xml version="1.0" encoding="utf-8"?>
<svg version="1.1" xmlns:xlink="http://www.w3.org/1999/xlink" width="128px" height="128px" xmlns="http://www.w3.org/2000/svg">
  <defs>
    <path d="M 0 0  L 1024 0  L 1024 1024  L 0 1024  Z " fill-rule="evenodd" fill="black" id="path30" />
    <clipPath id="clip31">
      <use xlink:href="#path30" />
    </clipPath>
    <filter x="-50.00%" y="-50.00%" width="200.00%" height="200.00%" filterUnits="objectBoundingBox" id="filter32">
      <feColorMatrix type="matrix" values="1 0 0 0 0  0 1 0 0 0  0 0 1 0 0  0 0 0 1 0  " in="SourceGraphic" />
    </filter>
    <filter x="44px" y="282px" width="128px" height="128px" filterUnits="userSpaceOnUse" id="filter33">
      <feOffset dx="2" dy="2" in="SourceAlpha" result="shadowOffsetInner" />
      <feGaussianBlur stdDeviation="7" in="shadowOffsetInner" result="shadowGaussian" />
      <feComposite in2="shadowGaussian" operator="atop" in="SourceAlpha" result="shadowComposite" />
      <feColorMatrix type="matrix" values="0 0 0 0 0.498039215686275  0 0 0 0 0.498039215686275  0 0 0 0 0.498039215686275  0 0 0 0.380392156862745 0  " in="shadowComposite" />
    </filter>
    <g id="widget34">
      <g transform="matrix(0.09765625 0 0 0.09765625 56 294 )" clip-path="url(#clip31)" filter="url(#filter32)">
        <path d="M772.0625 186.3125H722.46875v-11.625c0-44.90625-36.5625-81.46875-81.46875-81.46875H384.875c-44.90625 0-81.46875 36.5625-81.46875 81.46875v11.625h-49.59375c-46.5 0-84.28125 36.5625-84.28125 81.46875v582.09375c0 44.90625 37.78125 81.46875 84.28125 81.46875h518.34375c46.5 0 84.28125-36.5625 84.28125-81.46875V267.78125c-0.09375-44.90625-37.875-81.46875-84.375-81.46875zM373.25 174.6875c0-6.28125 5.34375-11.625 11.625-11.625h256.125c6.28125 0 11.625 5.34375 11.625 11.625v69.84375c0 6.28125-5.34375 11.625-11.625 11.625H384.875c-6.28125 0-11.625-5.34375-11.625-11.625v-69.84375z m69.84375 407.4375c0-38.53125 31.3125-69.84375 69.84375-69.84375s69.84375 31.3125 69.84375 69.84375-31.3125 69.84375-69.84375 69.84375-69.84375-31.3125-69.84375-69.84375z m69.84375 139.6875c79.5 0 144.75 61.6875 150.75 139.6875H362.1875c6-77.90625 71.25-139.6875 150.75-139.6875z m273.5625 128.15625c0 6.1875-6.75 11.625-14.4375 11.625h-38.53125c-4.21875-80.15625-51.09375-149.15625-118.5-184.40625C638.28125 652.25 652.625 618.875 652.625 582.125c0-77.0625-62.625-139.6875-139.6875-139.6875s-139.6875 62.625-139.6875 139.6875c0 36.75 14.34375 70.03125 37.59375 95.0625-67.40625 35.25-114.28125 104.25-118.5 184.40625h-38.53125c-7.6875 0-14.4375-5.4375-14.4375-11.625v-582.1875c0-6.1875 6.75-11.625 14.4375-11.625h50.8125c5.71875 39.375 39.375 69.84375 80.34375 69.84375h256.125c40.96875 0 74.71875-30.5625 80.34375-70.03125 0.46875 0 0.9375 0.1875 1.40625 0.1875h49.40625c7.6875 0 14.4375 5.4375 14.4375 11.625v582.1875z" fill="#ffffff" />
      </g>
    </g>
  </defs>
  <g transform="matrix(1 0 0 1 -44 -282 )">
    <use xlink:href="#widget34" filter="url(#filter33)" />
    <use xlink:href="#widget34" />
  </g>
</svg>